<?xml version="1.0" encoding="UTF-8" standalone="no"?>
<!-- Created with Inkscape (http://www.inkscape.org/) -->

<svg
   width="48"
   height="48"
   viewBox="0 0 48 48"
   version="1.1"
   id="svg1"
   xmlns="http://www.w3.org/2000/svg"
   xmlns:svg="http://www.w3.org/2000/svg">
  <defs
     id="defs1" />
  <g
     id="layer1">
    <path
       style="color:#000000;fill:#000000;-inkscape-stroke:none"
       d="m 9.9570313,1.9355469 c -4.4270257,0 -8.0214844,3.5944587 -8.0214844,8.0214844 V 38.042969 c 0,4.427025 3.5944587,8.021484 8.0214844,8.021484 H 38.042969 c 4.427025,0 8.021484,-3.594459 8.021484,-8.021484 V 9.9570313 c 0,-4.4270257 -3.594459,-8.0214844 -8.021484,-8.0214844 z m 0,2.0019531 H 38.042969 c 3.352548,0 6.019531,2.6669835 6.019531,6.0195313 V 38.042969 c 0,3.352548 -2.666983,6.019531 -6.019531,6.019531 H 9.9570313 C 6.6044835,44.0625 3.9375,41.395517 3.9375,38.042969 V 9.9570313 C 3.9375,6.6044835 6.6044835,3.9375 9.9570313,3.9375 Z"
       id="rect1" />
    <path
       id="text1"
       style="font-weight:bold;font-size:40.2528px;font-family:Helvetica;-inkscape-font-specification:'Helvetica Bold';text-align:center;stroke-width:2.002"
       d="m 19.572796,13.053892 v 0.002 c -7.78e-4,1.381647 -1.120306,2.500243 -2.501954,2.5 h -0.002 v 26.46875 h 6.013672 V 31.60858 h 6.152344 c 3.210263,0 5.680546,-0.707911 7.410156,-2.123047 1.729611,-1.415136 2.59375,-3.83204 2.59375,-7.251953 0,-3.131644 -0.864139,-5.445699 -2.59375,-6.939453 -1.72961,-1.493755 -4.04814,-2.240234 -6.957031,-2.240235 z m 3.509765,5.03125 h 5.642578 c 1.42824,0 2.534126,0.322792 3.320313,0.964844 0.799289,0.642053 1.199219,1.715799 1.199219,3.222656 0,1.506858 -0.393501,2.60827 -1.179688,3.302735 -0.79929,0.694465 -1.911604,1.041015 -3.339844,1.041015 h -5.642578 z" />
    <path
       style="color:#000000;fill:#000000;-inkscape-stroke:none"
       d="m 17.070312,5.7011719 c -4.050068,-6.197e-4 -7.3560871,3.3034473 -7.3554682,7.3535161 5.591e-4,4.049243 3.3062252,7.354135 7.3554682,7.353515 4.048419,-5.59e-4 7.351004,-3.305097 7.351563,-7.353515 6.19e-4,-4.0492436 -3.302319,-7.352957 -7.351563,-7.3535161 z m 0,2.0019531 c 2.967273,4.097e-4 5.350063,2.38429 5.34961,5.351563 -4.1e-4,2.966654 -2.382955,5.351152 -5.34961,5.351562 -2.967273,4.54e-4 -5.353105,-2.384289 -5.353515,-5.351562 -4.54e-4,-2.967892 2.385624,-5.3520171 5.353515,-5.351563 z m 0,1.8476563 c -1.923473,-3.375e-4 -3.504243,1.5804327 -3.503906,3.5039067 v 0.002 c 0.0011,1.92249 1.581416,3.500337 3.503906,3.5 1.922491,3.37e-4 3.502824,-1.57751 3.503907,-3.5 v -0.002 c 3.37e-4,-1.923474 -1.580433,-3.5042442 -3.503907,-3.5039067 z m 0,2.0019527 c 0.841266,-1.47e-4 1.502101,0.660688 1.501954,1.501954 -4.74e-4,0.840804 -0.661148,1.500147 -1.501954,1.5 -0.840805,1.47e-4 -1.501479,-0.659196 -1.501953,-1.5 -1.47e-4,-0.841266 0.660688,-1.502101 1.501953,-1.501954 z"
       id="path1" />
    <path
       id="rect2"
       style="color:#000000;fill:#000000;stroke-width:0.999995;-inkscape-stroke:none"
       d="m 22.06746,16.756963 v 3.568607 2.453694 2.453691 2.453696 h 3.613137 2.790748 1.968365 0.822385 2.79075 v -2.453696 -1.114909 -2.453695 -2.453692 -2.453696 h -2.79075 -2.79075 -2.790748 z m 0.822388,1.114913 h 1.968361 v 1.338783 h -1.968361 z m 2.790749,0 h 1.968362 v 1.338783 h -1.968362 z m 2.790748,0 h 1.968365 v 1.338783 h -1.968365 z m 2.79075,0 h 1.966783 v 1.338783 h -1.966783 z m -8.372247,2.453694 h 1.968361 v 1.338781 h -1.968361 z m 2.790749,0 h 1.968362 v 1.338781 h -1.968362 z m 2.790748,0 h 1.968365 v 1.338781 h -1.968365 z m 2.79075,0 h 1.966783 v 1.338781 h -1.966783 z m -8.372247,2.453694 h 1.968361 v 1.338782 h -1.968361 z m 2.790749,0 h 1.968362 v 1.338782 h -1.968362 z m 2.790748,0 h 1.968365 v 1.338782 h -1.968365 z m 2.79075,0 h 1.966783 v 1.338782 h -1.966783 z m -8.372247,2.453691 h 1.968361 v 1.338782 h -1.968361 z m 2.790749,0 h 1.968362 v 1.338782 h -1.968362 z m 2.790748,0 h 1.968365 v 1.338782 h -1.968365 z m 2.79075,0 h 1.966783 v 1.338782 h -1.966783 z" />
  </g>
</svg>
